<?xml version="1.0" standalone="no"?>
<!DOCTYPE svg PUBLIC "-//W3C//DTD SVG 20010904//EN"
 "http://www.w3.org/TR/2001/REC-SVG-20010904/DTD/svg10.dtd">
<svg version="1.0" xmlns="http://www.w3.org/2000/svg"
 width="3724.000000pt" height="3724.000000pt" viewBox="0 0 3724.000000 3724.000000"
 preserveAspectRatio="xMidYMid meet">
<metadata>
Created by potrace 1.14, written by Peter Selinger 2001-2017
</metadata>
<g transform="translate(0.000000,3724.000000) scale(0.100000,-0.100000)"
fill="#000000" stroke="none">
<path d="M18098 37235 c-2 -2 -93 -6 -203 -10 -110 -4 -220 -8 -245 -10 -25
-1 -103 -6 -174 -10 -71 -4 -137 -8 -146 -10 -9 -2 -68 -6 -131 -10 -63 -3
-125 -8 -139 -10 -14 -2 -61 -7 -105 -10 -93 -8 -120 -10 -195 -18 -30 -4
-102 -11 -160 -17 -58 -6 -121 -13 -141 -16 -20 -2 -55 -7 -79 -9 -24 -2 -61
-7 -84 -11 -23 -3 -57 -7 -76 -9 -19 -2 -51 -6 -70 -9 -50 -8 -330 -48 -364
-52 -17 -2 -68 -11 -115 -19 -48 -8 -104 -17 -126 -21 -121 -18 -558 -101
-740 -140 -115 -25 -219 -46 -230 -48 -11 -2 -60 -13 -110 -25 -49 -13 -99
-24 -110 -27 -26 -5 -124 -29 -250 -60 -55 -14 -107 -27 -115 -29 -8 -2 -60
-15 -115 -30 -55 -15 -134 -36 -175 -47 -41 -10 -100 -27 -130 -36 -30 -9 -57
-17 -60 -17 -174 -42 -1093 -340 -1240 -402 -8 -3 -19 -7 -25 -8 -39 -10 -583
-221 -672 -261 -17 -8 -34 -14 -37 -14 -3 0 -25 -9 -49 -19 -23 -11 -82 -36
-131 -56 -49 -20 -96 -41 -105 -45 -9 -5 -68 -31 -132 -59 -64 -28 -146 -64
-183 -81 -36 -16 -96 -44 -133 -61 -272 -124 -797 -387 -1033 -517 -25 -13
-79 -43 -120 -65 -41 -22 -92 -51 -112 -64 -21 -13 -40 -23 -42 -23 -6 0 -417
-237 -477 -276 -22 -14 -55 -33 -72 -43 -49 -28 -431 -270 -531 -337 -49 -32
-96 -63 -105 -69 -19 -12 -163 -109 -291 -196 -159 -109 -618 -443 -695 -506
-5 -5 -39 -31 -75 -58 -36 -27 -79 -60 -96 -74 -16 -14 -45 -37 -64 -51 -37
-28 -89 -69 -110 -88 -8 -7 -40 -31 -70 -54 -30 -24 -57 -45 -60 -49 -3 -3
-57 -48 -120 -100 -159 -131 -158 -130 -195 -164 -18 -16 -57 -50 -86 -75 -62
-52 -132 -113 -139 -120 -4 -4 -93 -84 -218 -195 -231 -205 -792 -757 -1027
-1010 -60 -65 -128 -137 -150 -160 -22 -24 -71 -78 -110 -121 -38 -43 -79 -88
-90 -99 -11 -12 -45 -51 -75 -86 -30 -35 -59 -69 -65 -75 -152 -170 -529 -628
-645 -784 -14 -18 -31 -39 -38 -46 -6 -7 -12 -16 -12 -20 0 -4 -6 -12 -14 -18
-15 -11 -319 -419 -352 -471 -10 -16 -24 -36 -31 -43 -7 -8 -52 -71 -100 -140
-48 -70 -91 -128 -95 -130 -4 -2 -8 -10 -8 -17 0 -7 -4 -15 -8 -17 -4 -1 -73
-102 -153 -223 -191 -289 -201 -304 -310 -481 -178 -287 -154 -248 -313 -524
-58 -102 -111 -192 -116 -200 -6 -8 -13 -22 -17 -30 -3 -8 -23 -44 -43 -80
-98 -173 -250 -464 -389 -745 -111 -225 -221 -454 -221 -460 0 -2 -17 -41 -39
-87 -21 -46 -45 -99 -54 -118 -8 -19 -26 -60 -40 -90 -33 -75 -155 -362 -205
-485 -80 -198 -125 -310 -127 -320 -1 -5 -8 -23 -14 -40 -20 -48 -132 -348
-137 -365 -2 -8 -22 -67 -44 -130 -135 -378 -278 -835 -386 -1230 -30 -112
-141 -542 -149 -580 -2 -8 -17 -76 -35 -150 -18 -74 -34 -145 -36 -158 -3 -13
-16 -76 -30 -140 -35 -159 -98 -481 -124 -627 -25 -141 -24 -132 -44 -264 -9
-58 -19 -114 -21 -125 -5 -25 -15 -90 -20 -131 -2 -16 -6 -48 -10 -70 -25
-166 -35 -237 -39 -280 -3 -27 -10 -84 -16 -125 -5 -41 -12 -95 -14 -120 -3
-25 -7 -61 -10 -80 -3 -19 -8 -64 -11 -100 -3 -36 -7 -78 -9 -95 -2 -16 -7
-66 -10 -110 -4 -44 -9 -96 -11 -115 -5 -41 -11 -112 -20 -225 -3 -44 -8 -102
-10 -130 -2 -27 -7 -104 -11 -170 -3 -66 -7 -142 -9 -170 -13 -197 -20 -523
-20 -970 1 -534 7 -794 30 -1140 4 -49 8 -119 10 -155 4 -62 12 -168 20 -255
3 -22 7 -69 9 -105 13 -149 17 -197 21 -230 3 -19 7 -62 10 -95 3 -33 8 -71
10 -85 2 -14 7 -54 11 -90 3 -36 7 -72 9 -80 2 -13 5 -36 20 -160 7 -53 45
-332 50 -360 2 -14 7 -43 10 -65 6 -36 61 -371 69 -420 22 -125 59 -317 66
-345 5 -19 11 -51 14 -70 6 -35 11 -62 21 -110 3 -14 7 -34 9 -45 3 -11 13
-60 25 -110 11 -49 22 -101 25 -115 2 -14 12 -56 20 -95 9 -38 19 -81 22 -93
4 -21 27 -114 95 -387 11 -44 22 -88 24 -97 4 -18 96 -352 120 -433 118 -406
263 -853 396 -1217 76 -208 252 -665 283 -733 8 -16 30 -70 51 -120 20 -49 42
-103 50 -120 7 -16 47 -108 89 -202 42 -95 98 -219 124 -275 27 -57 68 -146
93 -198 190 -412 547 -1077 836 -1560 134 -223 394 -634 405 -638 4 -2 8 -7 8
-11 0 -25 447 -665 689 -986 129 -172 115 -153 148 -195 16 -19 44 -55 63 -80
19 -25 38 -47 42 -48 4 -2 8 -10 8 -18 0 -8 4 -14 8 -14 4 0 26 -23 47 -52 22
-29 74 -93 115 -144 41 -50 90 -109 108 -132 36 -44 48 -58 116 -137 24 -27
72 -84 107 -125 35 -41 68 -80 74 -86 10 -11 94 -106 135 -154 28 -32 154
-171 200 -220 19 -21 78 -84 130 -140 119 -128 621 -632 756 -760 86 -81 197
-184 314 -290 57 -52 167 -150 210 -187 24 -21 65 -56 90 -78 38 -35 186 -161
269 -230 13 -11 29 -24 35 -30 6 -5 34 -28 61 -50 63 -51 80 -65 113 -93 15
-12 52 -42 82 -65 30 -23 61 -48 68 -54 7 -7 41 -34 75 -60 60 -46 86 -67 111
-88 7 -5 19 -14 27 -20 16 -10 385 -285 451 -337 20 -15 41 -28 47 -28 5 0 11
-4 13 -8 4 -9 127 -97 286 -206 63 -42 119 -81 125 -86 7 -6 59 -41 117 -79
58 -37 147 -96 198 -130 51 -33 96 -61 98 -61 3 0 10 -5 17 -10 17 -15 179
-119 197 -127 8 -3 34 -19 57 -35 23 -15 45 -28 49 -28 4 0 15 -6 23 -14 18
-15 501 -298 626 -366 44 -24 102 -56 128 -72 26 -15 50 -28 52 -28 2 0 59
-30 127 -67 133 -71 664 -338 791 -397 42 -20 112 -52 155 -72 216 -101 592
-264 797 -345 83 -33 159 -64 170 -69 60 -28 648 -245 760 -280 22 -7 45 -15
50 -19 6 -3 15 -6 20 -7 6 -1 64 -20 130 -42 172 -57 437 -143 456 -147 9 -2
63 -17 120 -35 150 -45 400 -116 442 -124 7 -2 19 -6 27 -9 14 -5 286 -75 320
-82 8 -2 60 -14 115 -28 141 -36 429 -101 671 -151 60 -13 235 -46 269 -52 22
-3 42 -7 45 -9 3 -2 26 -6 50 -10 25 -3 77 -12 115 -20 74 -15 254 -44 420
-70 55 -8 110 -17 122 -19 12 -3 50 -7 84 -11 35 -4 66 -8 69 -10 3 -2 30 -6
60 -9 71 -8 126 -15 170 -21 33 -4 71 -9 158 -20 20 -2 66 -7 102 -10 36 -3
76 -8 90 -10 26 -4 131 -16 185 -20 17 -1 64 -5 105 -9 167 -15 211 -19 395
-31 44 -3 107 -8 140 -10 62 -6 140 -9 435 -22 352 -15 1437 -7 1675 12 28 2
104 7 170 10 66 3 140 8 165 10 25 2 83 6 130 10 47 3 101 8 120 10 19 2 71 6
115 10 44 3 96 8 115 10 19 2 62 6 95 9 85 9 154 16 195 21 99 12 119 14 165
20 28 3 66 8 85 10 19 3 60 7 90 10 30 4 62 8 70 10 15 4 58 10 134 20 65 8
119 15 176 25 30 5 72 12 93 15 59 8 100 14 127 20 14 2 66 11 115 19 95 16
243 42 285 51 14 3 39 8 55 10 26 5 120 23 205 40 14 3 41 8 60 11 19 3 49 9
65 14 17 5 57 14 90 20 66 13 224 48 385 87 58 14 116 27 130 29 14 3 34 8 45
11 11 4 25 8 30 9 33 9 58 15 76 19 11 2 29 7 39 10 10 3 27 7 37 9 38 8 189
47 213 56 14 5 102 29 195 55 94 26 238 67 320 92 83 25 155 46 160 48 6 1 17
5 25 8 24 9 179 59 193 61 7 2 19 6 27 9 8 3 60 20 115 38 55 17 105 34 110
38 6 3 15 6 20 7 69 13 855 309 1160 439 61 25 115 47 120 49 6 1 30 12 55 23
148 68 266 118 273 115 4 -1 7 2 7 8 0 5 6 10 13 10 7 0 31 9 53 19 21 10 109
51 194 91 353 163 868 428 1215 623 88 49 175 98 193 108 17 11 49 29 70 40
20 12 48 29 62 39 14 9 59 36 100 59 41 23 95 55 120 71 25 16 70 43 100 61
118 69 783 500 800 519 3 3 25 19 50 35 25 16 47 32 50 35 3 3 12 10 22 15 41
25 537 385 564 410 7 5 24 19 39 30 45 32 277 213 310 240 17 14 35 29 40 33
45 32 297 239 499 411 61 52 116 99 122 105 7 6 42 38 80 71 37 33 75 67 84
75 9 8 36 33 60 54 45 40 76 67 274 251 146 134 705 693 836 834 58 63 119
129 137 148 43 47 157 172 183 203 12 14 45 51 73 83 102 114 124 140 201 232
33 39 62 72 65 75 39 31 526 648 726 917 244 330 695 987 781 1138 6 11 75
123 153 248 77 126 141 230 141 233 0 2 20 37 44 77 60 100 156 268 156 273 0
2 11 21 23 42 105 167 462 866 650 1272 21 47 52 114 69 150 17 36 70 160 120
275 49 116 95 224 103 240 48 107 239 601 315 815 28 80 58 163 67 185 40 106
272 826 287 890 2 6 8 30 15 55 7 25 15 52 17 60 2 8 27 96 54 195 44 155 135
506 145 554 2 9 15 63 29 121 25 105 82 362 90 410 2 14 7 32 10 40 3 8 7 26
10 40 2 14 27 142 54 285 28 143 53 276 56 295 3 19 17 105 31 190 22 134 66
432 80 540 3 19 9 67 14 105 6 39 13 93 16 120 3 28 7 69 10 93 5 44 10 91 20
182 3 30 8 66 10 80 2 14 7 61 10 105 4 44 8 96 10 115 2 19 6 69 9 110 4 41
9 100 11 130 3 30 7 89 10 130 2 41 7 113 10 160 37 555 42 1632 10 2105 -2
28 -6 101 -9 162 -3 62 -8 136 -10 165 -3 29 -8 91 -11 138 -3 47 -8 103 -10
125 -2 22 -7 72 -10 110 -3 39 -7 86 -9 105 -2 19 -7 69 -10 110 -4 41 -9 82
-11 90 -2 8 -6 47 -9 85 -4 39 -8 81 -10 95 -3 14 -7 52 -11 85 -3 33 -8 74
-10 90 -3 17 -12 82 -20 145 -8 63 -20 147 -26 185 -6 39 -12 86 -15 105 -12
86 -65 414 -79 480 -2 13 -7 42 -11 65 -26 181 -169 845 -259 1205 -53 213
-65 260 -103 395 -11 39 -29 104 -40 146 -37 135 -120 410 -177 589 -289 914
-654 1809 -1092 2685 -190 380 -176 353 -433 820 -28 50 -99 172 -297 510
-125 214 -540 844 -727 1107 -23 31 -59 82 -81 114 -22 31 -45 62 -50 68 -6 6
-53 70 -105 141 -52 72 -100 137 -107 145 -6 8 -41 53 -77 100 -36 47 -69 90
-74 95 -4 6 -30 39 -58 75 -27 36 -51 67 -54 70 -3 3 -39 48 -81 100 -124 154
-220 271 -238 289 -9 10 -34 39 -56 66 -36 44 -153 182 -180 211 -5 6 -39 44
-75 85 -143 162 -236 266 -265 295 -16 18 -82 87 -145 155 -63 68 -246 254
-406 414 -249 248 -343 339 -523 505 -39 36 -211 192 -231 210 -9 8 -46 40
-80 70 -35 30 -68 60 -74 66 -9 8 -225 191 -381 322 -49 41 -244 199 -274 222
-18 14 -58 46 -89 71 -277 226 -978 726 -1367 975 -279 179 -584 368 -707 437
-24 13 -83 47 -131 76 -49 28 -93 51 -98 51 -5 0 -9 5 -9 10 0 6 -6 10 -14 10
-7 0 -19 7 -26 15 -7 9 -15 14 -17 11 -3 -2 -46 19 -96 48 -239 138 -710 380
-1037 534 -47 22 -133 63 -193 91 -59 28 -109 51 -112 51 -2 0 -43 18 -91 40
-48 23 -130 59 -183 81 -53 23 -109 47 -126 54 -221 99 -760 309 -1070 417
-291 102 -814 273 -869 284 -11 2 -47 12 -80 23 -34 10 -86 26 -116 34 -30 9
-113 32 -183 52 -70 20 -133 38 -140 39 -7 2 -32 8 -57 15 -25 7 -52 15 -60
16 -8 2 -105 26 -215 54 -162 40 -326 79 -445 106 -52 11 -352 74 -385 81 -22
4 -42 8 -45 9 -6 1 -62 13 -100 20 -21 4 -78 15 -155 29 -11 2 -38 7 -60 11
-22 4 -49 9 -60 10 -11 2 -90 16 -175 31 -85 14 -166 28 -180 29 -71 10 -127
18 -144 21 -18 3 -152 23 -201 29 -11 2 -43 6 -70 10 -28 4 -63 8 -80 10 -16
2 -50 7 -75 10 -25 3 -63 8 -85 10 -22 3 -62 7 -90 11 -27 3 -66 7 -85 9 -19
2 -53 6 -75 9 -43 5 -127 14 -215 21 -30 3 -75 7 -100 10 -25 2 -79 7 -120 10
-41 3 -95 8 -120 10 -25 2 -88 7 -140 10 -52 3 -120 8 -150 10 -30 2 -111 7
-180 11 -69 3 -159 8 -200 10 -92 5 -1277 13 -1282 9z"/>
</g>
</svg>
